<svg xmlns="http://www.w3.org/2000/svg" width="2561" height="450" viewBox="0 0 2561 450">
  <g fill="none">
    <path fill="#526F35" d="M1128.7,128.028 C969.7,154.428 809.8,232.928 646.5,217.528 C539.5,207.428 440,134.928 336.9,113.428 C228.4,90.728 113.6,81.028 0,84.228 L0,447.405778 L2561,447.405778 C2399.8,356.105778 1912.1,124.628 1696.8,101.428 C1468,76.628 1352.2,91.128 1128.7,128.028 Z"/>
    <path fill="#526F35" d="M2560,189.628 C2272.1,130.928 1776.6125,337.908903 1733.8125,362.108903 L1733.8125,443.269603 L2360.0979,449.645275 C2476.78009,446.685902 2560,443.269603 2560,443.269603 L2560,189.628 Z"/>
    <path fill="#526F35" d="M2423.7,107.928 C2422.8,103.228 2420,98.128 2414.4,100.828 C2409.5,103.128 2406.5,110.328 2404.1,114.928 C2398.1,126.228 2394.4,138.628 2392.1,151.228 C2389.8,135.228 2386.4,119.328 2381.7,103.828 C2380.4,99.528 2378.5,93.428 2373.2,92.828 C2366.6,92.028 2365.2,99.528 2364.7,104.428 C2363,118.728 2365.2,133.028 2368.7,146.828 C2370.6,154.428 2372.9,162.028 2375.3,169.528 L2360.3,147.128 C2356.1,140.828 2352.2,133.628 2346.7,128.228 C2343.2,124.828 2335.5,119.528 2331.4,124.928 C2327.6,130.128 2332.8,139.828 2335.4,144.428 C2339.4,151.528 2344.5,158.228 2349.7,164.528 C2360.2,177.328 2372.2,188.728 2385.4,198.628 C2385.7,198.828 2385.9,198.928 2386.2,199.128 C2387.3,200.228 2389,200.228 2390.3,199.628 C2390.4,199.628 2390.5,199.728 2390.6,199.728 C2392.1,200.728 2394.4,200.328 2395.7,198.928 C2397,199.528 2398.6,199.328 2399.6,198.128 C2399.7,198.028 2399.8,198.028 2399.9,198.028 C2407,193.728 2413.6,188.928 2419.8,183.528 C2424.8,180.228 2429.3,176.228 2433.3,171.628 C2438.1,166.228 2447.2,154.028 2438,147.928 C2434.3,145.428 2430.5,147.528 2427.4,149.928 C2422.7,153.428 2418.6,157.628 2414.5,161.828 C2413.4,162.928 2412.3,164.128 2411.2,165.228 C2412.8,160.428 2414.5,155.628 2416,150.828 C2420.3,137.628 2426.3,121.928 2423.7,107.928 M221.7,15.928 C220.8,11.228 218,6.128 212.4,8.828 C207.5,11.128 204.5,18.328 202.1,22.928 C196.1,34.228 192.4,46.628 190.1,59.228 C187.8,43.228 184.4,27.328 179.7,11.828 C178.4,7.528 176.5,1.428 171.2,0.828 C164.6,0.028 163.2,7.528 162.7,12.428 C161,26.728 163.2,41.028 166.7,54.828 C168.6,62.428 170.9,70.028 173.3,77.528 L158.3,55.128 C154.1,48.828 150.2,41.628 144.7,36.228 C141.2,32.828 133.5,27.528 129.4,32.928 C125.6,38.128 130.8,47.828 133.4,52.428 C137.4,59.528 142.5,66.228 147.7,72.528 C158.2,85.328 170.2,96.728 183.4,106.628 C183.7,106.828 183.9,106.928 184.2,107.128 C185.3,108.228 187,108.228 188.3,107.628 C188.4,107.628 188.5,107.728 188.6,107.728 C190.1,108.728 192.4,108.328 193.7,106.928 C195,107.528 196.6,107.328 197.6,106.128 C197.7,106.028 197.8,106.028 197.9,106.028 C205,101.728 211.6,96.928 217.8,91.528 C222.8,88.228 227.3,84.228 231.3,79.628 C236.1,74.228 245.2,62.028 236,55.928 C232.3,53.428 228.5,55.528 225.4,57.928 C220.7,61.428 216.6,65.628 212.5,69.828 C211.4,70.928 210.3,72.128 209.2,73.228 C210.8,68.428 212.5,63.628 214,58.828 C218.3,45.628 224.3,29.928 221.7,15.928 M894.4,196.528 C887.1,182.728 881.5,167.928 877.7,152.728 C877.3,151.028 876.9,149.128 878.4,147.828 C879.4,146.928 880.8,146.728 882,147.128 C884.4,147.928 885.7,150.228 886.8,152.328 C889.4,157.428 891.8,162.528 894,167.828 C893.7,151.528 895.2,132.428 902.2,117.728 C902.5,117.028 903,116.628 903.6,116.328 C906.4,114.928 909.7,116.928 910,120.028 C911.2,134.228 911.5,148.428 910.8,162.628 C913.1,153.128 919.9,144.728 928.7,140.528 C929.8,140.028 931,139.728 932.1,139.928 C934.4,140.328 934.8,141.928 935,143.528 C935.8,150.228 932.9,156.728 930.9,163.128 C929.1,168.828 927.9,174.728 925.4,180.128 C922.9,185.528 918.8,190.528 913.2,192.528 C907.6,194.428 900.4,192.428 897.9,187.028 M1135.3,131.928 C1130.7,126.428 1127.4,119.828 1125.7,112.828 C1125.2,110.728 1124.9,108.328 1126.3,106.628 C1128.4,104.128 1132.5,105.328 1135.1,107.228 C1138.2,109.528 1140.7,112.528 1142.4,116.028 C1149.6,104.528 1160.1,95.128 1172.4,89.228 C1173.1,88.828 1173.9,88.528 1174.7,88.628 C1176.3,88.828 1177.3,90.528 1177.6,92.128 C1178.3,96.428 1176,100.628 1173.7,104.328 C1168,113.128 1161.4,121.328 1153.9,128.628"/>
    <path fill="#395D33	" d="M1026.5,194.728 C1029.4,192.028 1033.5,189.428 1037.6,189.228 L1037.7,189.228 C1039.4,189.228 1040.8,189.828 1042,190.728 C1042.1,190.828 1042.2,190.828 1042.3,190.928 C1043.2,191.728 1044,192.628 1044.8,193.528 C1044.9,193.728 1045.1,193.828 1045.2,194.028 C1046,195.028 1046.9,195.928 1046.5,197.328 C1045.9,199.428 1043.2,199.528 1041.1,199.328 C1036.5,199.528 1032,199.128 1027.5,198.128 C1025.9,197.728 1025.4,195.728 1026.5,194.728 M1125.1,200.228 L1125.1,200.128 C1125.1,199.728 1125.1,199.428 1125,199.028 C1124.8,196.828 1124.2,194.628 1123.2,192.628 C1122.2,190.728 1120.7,188.728 1118.9,187.528 C1118,186.928 1117.2,186.828 1116.4,187.028 L1116.4,187.028 C1116,187.028 1115.6,187.228 1115.4,187.528 C1114.9,187.828 1114.4,188.328 1114,188.928 C1112.8,190.528 1111.6,192.328 1110.6,194.128 C1110,195.128 1109.3,196.128 1108.8,197.128 C1108.2,198.128 1107.7,199.128 1107.1,200.128 C1106.7,200.828 1106.4,201.628 1106,202.328 C1105.4,203.628 1104.7,204.928 1105.9,206.028 C1107.1,207.128 1109.1,207.028 1110.6,207.028 C1112.6,207.128 1114.7,207.128 1116.7,207.028 C1117.3,207.028 1119.2,207.128 1120.9,207.228 C1122.6,207.328 1124.1,206.328 1124.7,204.728 L1124.7,204.728 C1125.4,203.528 1125.4,201.928 1125.1,200.228 M1802,148.628 C1799.1,145.928 1795,143.328 1790.9,143.128 L1790.8,143.128 C1789.1,143.128 1787.7,143.728 1786.5,144.628 C1786.4,144.728 1786.3,144.728 1786.2,144.828 C1785.3,145.628 1784.5,146.528 1783.7,147.428 C1783.6,147.628 1783.4,147.728 1783.3,147.928 C1782.5,148.928 1781.6,149.828 1782,151.228 C1782.6,153.328 1785.3,153.428 1787.4,153.228 C1792,153.428 1796.5,153.028 1801,152.028 C1802.6,151.628 1803.1,149.628 1802,148.628"/>
    <path fill="#2F4F2F" d="M1735.9,164.128 C1736.5,160.428 1737.6,156.728 1740.3,153.928 C1741.7,152.428 1743.5,151.328 1745.5,150.928 C1750.7,149.828 1753.4,153.428 1756.3,156.328 C1756.8,156.828 1757.4,157.428 1758.1,157.628 C1759.3,158.028 1760.7,157.428 1761.9,157.228 C1764.6,156.828 1767.3,158.528 1768.9,160.828 C1770.4,163.128 1770.9,165.928 1771.1,168.628 C1771.1,169.028 1771.1,169.428 1770.9,169.828 C1770.6,170.228 1770.1,170.328 1769.6,170.428 C1759.7,171.828 1749.6,170.828 1739.7,169.528 L1739.7,169.528 C1737.2,169.028 1735.5,166.628 1735.9,164.128 M1114.1,208.328 C1111.2,205.628 1107.1,203.028 1103,202.828 L1102.9,202.828 C1101.2,202.828 1099.8,203.428 1098.6,204.328 C1098.5,204.428 1098.4,204.428 1098.3,204.528 C1097.4,205.328 1096.6,206.228 1095.8,207.128 C1095.7,207.328 1095.5,207.428 1095.4,207.628 C1094.6,208.628 1093.7,209.528 1094.1,210.928 C1094.7,213.028 1097.4,213.128 1099.5,212.928 C1104.1,213.128 1108.6,212.728 1113.1,211.728 C1114.7,211.328 1115.2,209.328 1114.1,208.328"/>
  </g>
</svg>
