<?xml version="1.0" encoding="utf-8"?>
<!-- Generator: Adobe Illustrator 16.0.0, SVG Export Plug-In . SVG Version: 6.00 Build 0)  -->
<!DOCTYPE svg PUBLIC "-//W3C//DTD SVG 1.1//EN" "http://www.w3.org/Graphics/SVG/1.1/DTD/svg11.dtd">
<svg version="1.1" id="Layer_1" xmlns="http://www.w3.org/2000/svg" xmlns:xlink="http://www.w3.org/1999/xlink" x="0px" y="0px"
	 width="842.5px" height="298.3px" viewBox="0 0 842.5 298.3" enable-background="new 0 0 842.5 298.3" xml:space="preserve">
<g id="Layer_2_1_">
</g>
<g id="Layer_1_2_">
	<g id="Layer_1_1_">
		<path fill="#566289" d="M650.197,144.965v-2.511h-6.931v2.511h-41.782v-3.013h-6.529v3.013h-7.734v-1.507h-11.148v-4.017h-11.249
			v7.232h-6.228v-3.616h-6.027v-8.839h-9.239v12.455h-2.812v2.209h-2.311v-10.044h-7.231v11.148h-2.209v-6.326l-6.63-0.101v2.31
			h-3.313v-16.974h-2.611v-1.105h-6.027v1.306l-0.903-0.201v9.943h-4.018v13.058h-2.01v-1.307h-2.913v-7.532l-4.619-0.402v-3.717
			h-10.748v12.958h-4.419v-2.512h-7.532v2.512h-3.315v-8.036h-1.707v-1.406h-7.031v7.734h-2.411v3.415h-6.025v-6.529h-9.944V153
			h-5.825v1.408h-3.717v-4.32h-3.615v-1.104h-9.542v-4.922h-7.633v8.336h-12.254v-2.511h-9.141v1.105h-7.733v-4.219h-2.612v-1.105
			H365.55v-2.008h-8.035v2.108h-6.526c-0.104,0-89.997-19.987-122.539-21.595c-27.42-1.406,2.611,0-42.586-1.406
			c-27.722-0.804-143.529,7.533-187.321,8.036v168.539H349.28v-0.703h495.47V144.162L650.197,144.965z"/>
		<path fill="#36446A" d="M844.75,151.292c0,0-56.448-18.179-72.819-17.275c-13.559,0.703-22.698,4.821-43.893,12.555
			c-3.615,1.306-9.039,3.515-15.668,4.319c-11.854,1.308-29.53-0.703-36.262,0.302c-14.865,2.309-26.114,7.432-39.369,8.738
			c-40.178,4.018-70.812,8.637-70.812,8.637l-119.424,1.709c0,0-35.456-3.615-74.828-10.646
			c-38.871-6.93-90.296-18.481-109.982-19.285c-31.036-1.104-66.089,3.817-117.515,6.228c-22.498,1.005-44.093,2.411-67.797,2.512
			c-25.813,0.101-52.33-5.223-77.841-7.031v157.39H844.75V151.292z"/>
		<path fill="#242E54" d="M844.75,189.361c0,0-80.854-6.027-167.735-12.556c-64.884-4.923-133.786-10.446-171.451-11.853
			c-36.056-1.307-70.811,8.737-123.24,15.367c-15.166,1.907-59.06,8.537-101.143,7.833c-39.875-0.603-80.854-15.769-136.297-18.278
			C98.78,167.867,49.665,184.638-1.459,185.14v112.795H844.75V189.361z"/>
		<path fill="#162142" d="M844.75,298.337H54.286v-41.383c177.277-8.437,176.272-14.162,266.368-19.886
			c30.634-1.909,62.976,0.902,94.112-1.407c40.374-2.91,90.396-7.229,107.772-8.537c94.112-7.332,121.231-12.453,170.849-10.443
			c37.967,1.507,62.573,6.729,86.378,12.053c15.972,3.618,64.985,14.564,64.985,14.564L844.75,298.337L844.75,298.337z"/>
		<path fill="#E5896F" d="M203.941,264.488c0.101,1.207,0.603,2.312,1.507,3.117c0.803,0.701,2.009,1.107,3.114,1.107
			c0.1,0,0.1,0,0.2,0h0.101c0.302,0,0.804,0.1,1.105,0.1c0.502,0,0.804,0,1.206,0h-0.101h-0.101c0.301,0,0.502,0,0.803,0
			c0.804-0.1,1.506-0.303,2.21-0.805l0.101-0.102c0.703-0.504,1.306-1.307,1.607-2.111c0.703-2.01,0.402-4.217-0.502-6.127
			c-0.904-1.809-1.808-3.617-2.712-5.424c-0.302-0.701-0.704-1.404-1.004-2.109c-0.402,0.301-0.804,0.604-1.206,0.904
			c-0.904,0.703-1.707,1.606-2.209,2.711c-0.804,1.508-1.105,3.215-1.105,4.924c-0.703-0.502-1.506-0.905-2.21-1.407
			C204.242,260.873,203.74,262.681,203.941,264.488z M206.653,267.803c0.201,0.101,0.502,0.302,0.703,0.401
			C207.055,268.105,206.854,267.904,206.653,267.803z"/>
		<path fill="#10152B" d="M844.75,290.805c0,0-152.368-7.636-287.962-12.354c-72.717-2.512-137.604-1.908-178.483-4.019
			c-47.207-2.511-113.394-4.923-189.129-9.341c-59.26-3.616-124.445-8.838-190.635-14.965v48.812l846.209-0.303V290.805
			L844.75,290.805z"/>
		<path fill="#10152B" d="M157.236,247.816c-1.908,1.005-2.109,4.619-2.109,4.922c0,0.2,0,0.2-0.201,0.401
			c-0.201,0.198,0,0.7-0.101,1.202c-0.201,0.502-0.704,1.31-1.004,1.609c-0.402,0.303-0.201,0.502-0.201,1.004
			c0,0.4-0.201,0.303-0.402,1.004c-0.201,0.705-0.1,1.106,0,1.508c0.101,0.302,0.301,0.705,0.502,1.307
			c0.201,0.604,0.101,0.702,0.201,1.005c0.1,0.302,0.803,2.208,1.305,3.112s1.607,0.303,1.607,0.303s0.201,2.309-0.302,3.312
			c-0.502,1.004,1.607,1.81,1.607,1.81s0.201,1.204,0.101,1.81c0,0.605,0,8.436,0.301,9.543c0.302,1.106,0.502,9.039,0.603,9.74
			c0.101,0.604,0,1.004-0.101,1.608c-0.1,0.604-0.402,3.214-0.402,3.214c-0.2,0.9,3.013,1.203,3.013,1.203
			c1.406,0.904,4.52,0.703,4.52,0.703c1.205-0.301,2.109-0.902,2.21-1.809c0-0.101,0-0.101,0-0.201
			c-0.302-0.803-3.315-1.808-3.315-1.808c-0.502-0.401-1.205-2.51-1.205-2.51c0.201-0.203,0.703-1.407,0.703-1.407
			c2.812-0.302,2.712-1.203,2.712-1.203c-0.101-1.508-1.909-1.205-1.909-1.205c-0.301-0.103-0.502-0.4-0.502-0.4
			c0-0.301,1.105-5.524,1.306-6.026c0.201-0.502,0.603-4.819,0.704-5.321c0.1-0.502,1.004-4.42,1.004-4.42
			c0.603-0.201,0.603-0.904,0.603-0.904s0-5.926,0.201-6.227c0.201-0.203-0.101-3.216-0.101-3.216
			c0.904-1.005,0.803-5.022,0.803-5.022c0.201,0,0.402,0.104,0.502,0.402c0.101,0.201,0,0.503,0.101,0.703
			c0.1,0.201,0.301,1.307,0.401,1.406c0.1,0.102,0.201,0.502,0,0.902c-0.201,0.399,0,0,0,0.399c0,0.401,0.201,0.401,0.301,0.806
			c0.101,0.402-0.201,1.004-0.1,1.307c0,0.303,0,0.9-0.101,1.205c-0.1,0.301-0.201,1.705-0.402,2.11
			c-0.201,0.503-0.201,5.322-0.201,5.322s0.201,0,0.201,0.502c0,0.503,0.302,6.831,0.201,7.333c0,0.503,0.201,1.707,0.301,2.511
			c0.1,0.804,0.302,0.503,0,1.607c-0.301,1.104,0,6.526,0.1,7.231c0.101,0.604-0.1,1.807,0.202,2.61
			c0.301,0.804,0.603,1.405,0.2,1.707c-0.502,0.303,0,2.21,0,2.21s-0.301,0.4,0,1.307c0.301,0.903,2.511-0.102,2.511-0.102
			s0-1.104,0-1.307c0-0.199,0.502-0.604,0.804-1.105c0.402-0.503,0.502-2.812,0.301-3.414c-0.1-0.604-0.904-1.607-1.004-2.008
			c-0.101-0.4,0.703-2.512,0.904-3.312c0.201-0.808,0.402-2.914,0.502-3.518c0.1-0.704,0.301-3.014,0.501-3.818
			c0.101-0.804,0.905-4.216,0.905-4.216s0.301,1.306,0.301,1.806c0,0.504-0.201,1.105-0.201,1.406c0,0.2,0.502,3.413,0.703,4.118
			c0.101,0.704,0.201,2.212,0.101,2.714s0.401,2.407,0.101,3.014c-0.201,0.603-0.402,2.91-0.402,2.91
			c-1.104,1.809,0.402,4.719,0.402,4.719l-0.101,1.006c-0.201,1.307,1.506,1.003,1.506,1.003c0.804,0,2.11-1.104,2.11-1.104
			c0.703-0.302,1.004-1.406,1.004-1.406c0.1-0.901-1.004-1.104-1.004-1.104c0.2-0.201,0.703-2.109,0.803-2.41
			c0-0.4-0.201-0.902-0.502-1.605c-0.201-0.704-0.101-1.91-0.101-2.613s0-3.516,0.101-4.218c0-0.603,0.101-4.019,0.201-4.62
			c0-0.602,0.301-1.707,0.402-2.21c0.1-0.502,0.301-3.114,0.401-3.515c0-0.401-0.201-2.914,0-2.914c0.201,0,0.704-0.604,0.704-0.604
			c0.1-0.301,2.812-0.803,2.812-0.803s-1.607-7.532-2.311-8.637c-0.703-1.108-0.803-4.221-0.803-4.221
			c-0.101-0.605,0.401-2.912,0.401-2.912c0.201-0.302,1.506-0.102,1.909-0.201c0.401-0.101,1.707-0.502,2.108-0.805
			c0.402-0.3,1.809-0.803,2.11-0.902c0.301-0.101,1.506-0.805,1.808-1.004c0.301-0.304,2.411-1.607,2.411-1.607
			c0.803-0.503,0.904-1.708,0.904-1.708v-0.302l0.401-0.604c0.201-0.104,1.105-0.902,1.105-0.902
			c0.401-0.401-0.101-1.006-0.101-1.006s0-0.4-0.101-0.502c-0.1-0.101,0-0.4,0-0.4c1.406-0.704,1.004-0.704,1.004-0.704
			c0-0.199-2.109,0.704-2.109,0.704c-0.101-0.102-0.502,0-1.004,0.101c-0.402,0.103-0.402,1.507-0.402,1.507
			s-2.511,1.909-2.913,2.11c-0.401,0.202-0.803,0.503-1.105,0.703c-0.301,0.2-1.205,0.104-1.406,0.104
			c-0.2,0-1.004,0.299-1.305,0.397c-0.201,0.104-0.502,0.104-0.804,0c-0.301,0-0.201,0.104-0.402,0.104
			c-0.101,0-0.603,0.101-0.803,0c-0.201,0-1.306-0.402-1.306-0.402c-0.1-0.201-0.703-0.602-0.703-0.602
			c-0.402-1.508-1.406-1.311-1.406-1.311l-3.416,0.703l-0.301-0.502c0-0.201,1.004-0.502,1.004-0.502
			c0.502-0.201,0.101-0.702,0.101-0.702c-0.101-0.302,0.402-1.308,0.402-1.308c0.401-0.604,0.1-1.307,0.1-1.307
			c-0.301-0.303,0-1.005,0-1.005c0.301-0.399-0.703-2.009-0.703-2.208c0-0.201-0.101-0.703,0-1.005
			c0.101-0.2-0.101-0.304-0.201-0.397c-0.1-0.104-0.301-0.104-0.402-0.402c0-0.201-0.401-0.101-0.401-0.101s-0.401,0-0.703-0.202
			c-0.402-0.199,0,0-0.201,0s-0.402-0.103-0.502-0.301c-0.1-0.201-0.301,0-0.401,0.102c-0.101,0.199-0.201,0-0.201-0.102
			c0-0.104-0.401-0.104-0.401-0.104s0,0,0,0.199c0,0.201-0.402,0.103-0.502,0.303c-0.101,0.104-0.402,0.199-0.402-0.2
			s-0.603,0-0.502,0.103c0.101,0-0.101,0.502-0.101,0.502l-0.402-0.199l-0.603,0.697c-2.913,2.411,0.904,7.533,0.904,7.533
			l-1.306,1.609c-0.201,0-4.118,1.402-4.118,1.402l-2.009-1.203l-0.502-1.006v-0.699l0.502-0.504
			c1.105-0.199,1.105-0.806,1.105-0.806c0.501-0.399,0.501-2.108,0.501-2.108c0.904-0.502,0-1.205,0.101-1.406
			c0.1-0.198,0.301-0.805,0.1-1.203c-0.201-0.398-0.201-1.107-0.1-1.205c0-0.102,0.401-0.197,0.401-0.4
			c0-0.199-0.401-0.701-0.502-0.902c-0.1-0.201-0.603-0.704-0.603-0.704l-0.401-0.401c0,0,0,0.401-0.101,0.401
			c-0.1,0-0.401-0.3-0.401-0.501c0-0.2-0.904-0.303-0.904-0.303h-0.603c0,0-0.201,0.504-0.402,0.103
			c-0.201-0.302-1.004-0.103-1.004-0.103s0,0.402-0.201,0.303c-0.201,0-0.603,0.302-0.603,0.302
			c-1.406,0.502-1.607,2.812-1.506,3.013c0,0.201,0,0.502,0,0.604c0,0.101-0.101,0.399,0,0.502c0,0.198-0.101,0.603,0.1,0.701
			c0.201,0.103,0,0.202,0,0.401c0.101,0.201,0,0.502,0,0.502s0.101,0.303,0.101,0.502c0,0.201,0.603,1.307,0.603,1.307v0.297
			L161.248,244l-0.201,0.604l-0.201,0.1c-0.101,0.402-1.004,1.508-1.004,1.508S159.145,246.811,157.236,247.816z"/>
	</g>
	<g id="Layer_2">
		<path fill="#242E54" d="M105.108,227.125c0,0,4.52,16.371,11.551,27.924c7.031,11.55,14.966,22.396,14.966,22.396l-50.321,16.172
			L105.108,227.125z"/>
		<polygon fill="#E5896F" points="105.108,227.125 119.085,281.496 94.161,289.498 		"/>
		<polygon fill="#10152B" points="96.608,275.337 118.143,277.304 119.132,281.462 94.097,289.5 		"/>
		<path fill="#566289" d="M105.108,227.125l-10.947,62.373c0,0-3.114-7.332-7.333-11.049
			C86.828,278.451,98.278,267.401,105.108,227.125z M105.117,227.177l13.968,54.316c0,0,4.102-10.979,4.403-16.002
			C123.388,265.494,116.969,266.953,105.117,227.177z"/>
		<path fill="#566289" d="M27.87,220.796c0,0,11.048,4.32,33.145,5.826c22.097,1.608,44.093,0.502,44.093,0.502l-23.804,66.492
			l-69.103-21.293c0,0,5.826-10.348,9.643-23.203C25.861,236.367,27.87,220.796,27.87,220.796z"/>
	</g>
	<g id="Layer_4">
		<g>
			<path fill="#EA654B" d="M662.505,57.234c2.046-0.772-43.983,27.896-48.429,31.705c-3.362,2.881-7.165,2.091-8.082,0.469
				c-0.918-1.622-0.012-5.293,4.155-6.808C617.196,80.037,656.427,59.527,662.505,57.234z"/>
			<path fill="#E5896F" d="M654.16,61.907c1.132-0.428-37.8,23.05-40.259,25.159c-1.863,1.597-3.97,1.158-4.479,0.26
				c-0.508-0.898-0.006-2.932,2.302-3.771C615.628,82.138,650.794,63.177,654.16,61.907z"/>
			<path fill="#FFFFFF" d="M616.791,83.467c0.6,1.231-3.688,4.884-5.455,5.745c-1.766,0.86-3.684,0.558-4.286-0.676
				c-0.6-1.232,0.347-2.929,2.112-3.789C610.931,83.888,616.191,82.234,616.791,83.467z"/>
		</g>
	</g>
</g>
</svg>
